<svg xmlns="http://www.w3.org/2000/svg" xmlns:xlink="http://www.w3.org/1999/xlink" width="75" zoomAndPan="magnify" viewBox="0 0 56.25 56.249997" height="75" preserveAspectRatio="xMidYMid meet" version="1.2"><defs><clipPath id="28d94050d1"><path d="M 1.582031 7.300781 L 53.671875 7.300781 L 53.671875 48.007812 L 1.582031 48.007812 Z M 1.582031 7.300781 "/></clipPath><clipPath id="e2a0aa2b58"><path d="M 30.890625 46.554688 L 33.113281 46.554688 L 33.113281 48.035156 L 30.890625 48.035156 Z M 30.890625 46.554688 "/></clipPath></defs><g id="5db96a25cf"><g clip-rule="nonzero" clip-path="url(#28d94050d1)"><path style=" stroke:none;fill-rule:nonzero;fill:#100f0d;fill-opacity:1;" d="M 34.488281 34.839844 L 43.234375 19.6875 C 43.316406 19.703125 43.402344 19.714844 43.488281 19.714844 C 43.574219 19.714844 43.65625 19.703125 43.738281 19.6875 L 52.488281 34.839844 Z M 2.769531 25.113281 L 11.515625 9.960938 C 11.597656 9.972656 11.683594 9.984375 11.769531 9.984375 C 11.855469 9.984375 11.9375 9.972656 12.019531 9.960938 L 20.769531 25.113281 Z M 53.671875 35.289062 C 53.675781 35.210938 53.65625 35.128906 53.613281 35.058594 L 44.492188 19.257812 C 44.699219 19.023438 44.828125 18.710938 44.828125 18.371094 C 44.828125 17.632812 44.226562 17.03125 43.488281 17.03125 C 43.019531 17.03125 42.609375 17.273438 42.367188 17.636719 L 29.574219 13.566406 C 29.578125 13.511719 29.582031 13.457031 29.582031 13.402344 C 29.582031 12.320312 28.707031 11.449219 27.628906 11.449219 C 26.910156 11.449219 26.285156 11.835938 25.945312 12.410156 L 13.066406 8.316406 C 12.921875 7.734375 12.394531 7.300781 11.769531 7.300781 C 11.027344 7.300781 10.425781 7.902344 10.425781 8.644531 C 10.425781 8.980469 10.554688 9.292969 10.761719 9.527344 L 1.640625 25.328125 C 1.601562 25.398438 1.582031 25.480469 1.582031 25.558594 C 1.582031 29.429688 6.144531 32.570312 11.769531 32.570312 C 17.394531 32.570312 21.953125 29.429688 21.953125 25.558594 C 21.957031 25.480469 21.9375 25.398438 21.894531 25.328125 L 12.773438 9.527344 C 12.859375 9.429688 12.929688 9.320312 12.988281 9.199219 L 25.683594 13.238281 C 25.675781 13.292969 25.671875 13.347656 25.671875 13.402344 C 25.671875 14.035156 25.976562 14.597656 26.445312 14.953125 L 26.445312 45.644531 L 20.425781 45.644531 L 20.425781 48.007812 L 34.832031 48.007812 L 34.832031 45.644531 L 28.808594 45.644531 L 28.808594 14.953125 C 29.011719 14.800781 29.179688 14.609375 29.308594 14.390625 L 42.152344 18.476562 C 42.175781 18.773438 42.296875 19.046875 42.484375 19.257812 L 33.359375 35.058594 C 33.320312 35.128906 33.300781 35.210938 33.304688 35.289062 L 33.300781 35.289062 C 33.300781 39.160156 37.863281 42.300781 43.488281 42.300781 C 49.113281 42.300781 53.671875 39.160156 53.671875 35.289062 "/></g><g clip-rule="nonzero" clip-path="url(#e2a0aa2b58)"><path style=" stroke:none;fill-rule:nonzero;fill:#100f0d;fill-opacity:1;" d="M 32.746094 46.824219 L 32.988281 47.503906 L 32.503906 47.503906 Z M 31.964844 46.675781 C 31.964844 46.660156 31.980469 46.644531 32 46.644531 C 32.019531 46.644531 32.039062 46.660156 32.039062 46.675781 C 32.039062 46.691406 32.019531 46.707031 32 46.707031 C 31.980469 46.707031 31.964844 46.691406 31.964844 46.675781 Z M 31.015625 47.503906 L 31.257812 46.824219 L 31.5 47.503906 Z M 33.101562 47.519531 C 33.097656 47.507812 33.085938 47.503906 33.074219 47.503906 L 33.042969 47.503906 L 32.789062 46.796875 C 32.816406 46.796875 32.839844 46.777344 32.839844 46.753906 C 32.839844 46.726562 32.816406 46.707031 32.789062 46.707031 L 32.132812 46.707031 C 32.136719 46.699219 32.136719 46.6875 32.136719 46.675781 C 32.136719 46.609375 32.078125 46.554688 32 46.554688 C 31.925781 46.554688 31.863281 46.609375 31.863281 46.675781 C 31.863281 46.6875 31.867188 46.699219 31.871094 46.707031 L 31.214844 46.707031 C 31.1875 46.707031 31.164062 46.726562 31.164062 46.753906 C 31.164062 46.777344 31.1875 46.796875 31.214844 46.796875 L 30.960938 47.503906 L 30.929688 47.503906 C 30.917969 47.503906 30.90625 47.507812 30.902344 47.519531 C 30.894531 47.527344 30.894531 47.539062 30.902344 47.550781 C 30.976562 47.660156 31.109375 47.726562 31.257812 47.726562 C 31.402344 47.726562 31.535156 47.660156 31.613281 47.550781 C 31.621094 47.539062 31.621094 47.527344 31.613281 47.519531 C 31.609375 47.507812 31.597656 47.503906 31.585938 47.503906 L 31.554688 47.503906 L 31.300781 46.796875 L 31.953125 46.796875 L 31.953125 47.910156 L 31.589844 47.910156 C 31.574219 47.910156 31.558594 47.925781 31.558594 47.941406 L 31.558594 48.003906 C 31.558594 48.023438 31.574219 48.035156 31.589844 48.035156 L 32.414062 48.035156 C 32.429688 48.035156 32.445312 48.023438 32.445312 48.003906 L 32.445312 47.941406 C 32.445312 47.925781 32.429688 47.910156 32.414062 47.910156 L 32.050781 47.910156 L 32.050781 46.796875 L 32.703125 46.796875 L 32.449219 47.503906 L 32.417969 47.503906 C 32.40625 47.503906 32.394531 47.507812 32.390625 47.519531 C 32.382812 47.527344 32.382812 47.539062 32.390625 47.550781 C 32.464844 47.660156 32.597656 47.726562 32.746094 47.726562 C 32.890625 47.726562 33.023438 47.660156 33.101562 47.550781 C 33.109375 47.539062 33.109375 47.527344 33.101562 47.519531 "/></g></g></svg>